<mxfile host="app.diagrams.net" modified="2023-11-28T02:06:34.397Z" agent="Mozilla/5.0 (Windows NT 10.0; Win64; x64) AppleWebKit/537.36 (KHTML, like Gecko) Chrome/119.0.0.0 Safari/537.36 Edg/119.0.0.0" version="22.1.4" etag="mQUQ75h0j9IxcYynrOVc" type="github">
  <diagram name="Page-1" id="rL7skqNRmiK7tFPdeKB9">
    <mxGraphModel>
      <root>
        <mxCell id="0" />
        <mxCell id="1" parent="0" />
      </root>
    </mxGraphModel>
  </diagram>
</mxfile>
